<svg width="53" height="53" viewBox="0 0 53 53" fill="none" xmlns="http://www.w3.org/2000/svg">
<g filter="url(#filter0_d_3_21)">
<path d="M41.5417 4.41667H37.125V2.20833C37.125 1.62265 36.8923 1.06095 36.4782 0.646806C36.0641 0.232663 35.5024 0 34.9167 0C34.331 0 33.7693 0.232663 33.3551 0.646806C32.941 1.06095 32.7083 1.62265 32.7083 2.20833V4.41667H19.4583V2.20833C19.4583 1.62265 19.2257 1.06095 18.8115 0.646806C18.3974 0.232663 17.8357 0 17.25 0C16.6643 0 16.1026 0.232663 15.6885 0.646806C15.2743 1.06095 15.0417 1.62265 15.0417 2.20833V4.41667H10.625C8.86794 4.41667 7.18285 5.11466 5.94042 6.35709C4.69799 7.59951 4 9.28461 4 11.0417V37.5417C4 39.2987 4.69799 40.9838 5.94042 42.2263C7.18285 43.4687 8.86794 44.1667 10.625 44.1667H41.5417C43.2987 44.1667 44.9838 43.4687 46.2263 42.2263C47.4687 40.9838 48.1667 39.2987 48.1667 37.5417V11.0417C48.1667 9.28461 47.4687 7.59951 46.2263 6.35709C44.9838 5.11466 43.2987 4.41667 41.5417 4.41667ZM43.75 37.5417C43.75 38.1274 43.5173 38.6891 43.1032 39.1032C42.6891 39.5173 42.1274 39.75 41.5417 39.75H10.625C10.0393 39.75 9.47762 39.5173 9.06347 39.1032C8.64933 38.6891 8.41667 38.1274 8.41667 37.5417V22.0833H43.75V37.5417ZM43.75 17.6667H8.41667V11.0417C8.41667 10.456 8.64933 9.89428 9.06347 9.48014C9.47762 9.066 10.0393 8.83333 10.625 8.83333H15.0417V11.0417C15.0417 11.6274 15.2743 12.1891 15.6885 12.6032C16.1026 13.0173 16.6643 13.25 17.25 13.25C17.8357 13.25 18.3974 13.0173 18.8115 12.6032C19.2257 12.1891 19.4583 11.6274 19.4583 11.0417V8.83333H32.7083V11.0417C32.7083 11.6274 32.941 12.1891 33.3551 12.6032C33.7693 13.0173 34.331 13.25 34.9167 13.25C35.5024 13.25 36.0641 13.0173 36.4782 12.6032C36.8923 12.1891 37.125 11.6274 37.125 11.0417V8.83333H41.5417C42.1274 8.83333 42.6891 9.066 43.1032 9.48014C43.5173 9.89428 43.75 10.456 43.75 11.0417V17.6667Z" fill="white"/>
</g>
<defs>
<filter id="filter0_d_3_21" x="0" y="0" width="52.1666" height="52.1667" filterUnits="userSpaceOnUse" color-interpolation-filters="sRGB">
<feFlood flood-opacity="0" result="BackgroundImageFix"/>
<feColorMatrix in="SourceAlpha" type="matrix" values="0 0 0 0 0 0 0 0 0 0 0 0 0 0 0 0 0 0 127 0" result="hardAlpha"/>
<feOffset dy="4"/>
<feGaussianBlur stdDeviation="2"/>
<feColorMatrix type="matrix" values="0 0 0 0 0 0 0 0 0 0 0 0 0 0 0 0 0 0 0.25 0"/>
<feBlend mode="normal" in2="BackgroundImageFix" result="effect1_dropShadow_3_21"/>
<feBlend mode="normal" in="SourceGraphic" in2="effect1_dropShadow_3_21" result="shape"/>
</filter>
</defs>
</svg>
