<svg width="52" height="52" viewBox="0 0 52 52" fill="none" xmlns="http://www.w3.org/2000/svg">
<g filter="url(#filter0_d_3_22)">
<path d="M26 9.42857C24.446 9.42857 22.9269 9.88938 21.6348 10.7527C20.3427 11.6161 19.3356 12.8432 18.741 14.2789C18.1463 15.7146 17.9907 17.2944 18.2938 18.8186C18.597 20.3427 19.3453 21.7427 20.4442 22.8415C21.543 23.9404 22.943 24.6887 24.4672 24.9919C25.9913 25.295 27.5711 25.1395 29.0068 24.5448C30.4425 23.9501 31.6696 22.943 32.533 21.6509C33.3963 20.3588 33.8571 18.8397 33.8571 17.2857C33.8571 15.2019 33.0293 13.2034 31.5558 11.7299C30.0823 10.2564 28.0839 9.42857 26 9.42857ZM26 22C25.0676 22 24.1561 21.7235 23.3809 21.2055C22.6056 20.6875 22.0014 19.9512 21.6446 19.0898C21.2878 18.2284 21.1944 17.2805 21.3763 16.366C21.5582 15.4515 22.0072 14.6115 22.6665 13.9522C23.3258 13.2929 24.1658 12.8439 25.0803 12.662C25.9948 12.4801 26.9427 12.5735 27.8041 12.9303C28.6655 13.2871 29.4018 13.8913 29.9198 14.6666C30.4378 15.4419 30.7143 16.3533 30.7143 17.2857C30.713 18.5356 30.216 19.734 29.3321 20.6178C28.4483 21.5017 27.2499 21.9987 26 22Z" fill="white"/>
<path d="M26 0C21.6488 0 17.3953 1.29028 13.7775 3.70767C10.1596 6.12506 7.33979 9.56099 5.67466 13.581C4.00953 17.6009 3.57386 22.0244 4.42273 26.292C5.27161 30.5596 7.3669 34.4796 10.4437 37.5563C13.5204 40.6331 17.4404 42.7284 21.708 43.5773C25.9756 44.4261 30.3991 43.9905 34.419 42.3253C38.439 40.6602 41.8749 37.8404 44.2923 34.2225C46.7097 30.6047 48 26.3512 48 22C47.9933 16.1673 45.6734 10.5754 41.549 6.451C37.4246 2.32664 31.8327 0.00665456 26 0ZM16.5714 38.3067V36.1429C16.5727 34.8929 17.0698 33.6946 17.9536 32.8107C18.8374 31.9269 20.0358 31.4298 21.2857 31.4286H30.7143C31.9642 31.4298 33.1626 31.9269 34.0464 32.8107C34.9302 33.6946 35.4273 34.8929 35.4286 36.1429V38.3067C32.5673 39.9775 29.3134 40.8579 26 40.8579C22.6866 40.8579 19.4327 39.9775 16.5714 38.3067ZM38.5589 36.0266C38.5275 33.9654 37.6878 31.999 36.2204 30.5511C34.7531 29.1031 32.7757 28.2896 30.7143 28.2857H21.2857C19.2243 28.2896 17.2469 29.1031 15.7796 30.5511C14.3123 31.999 13.4725 33.9654 13.4412 36.0266C10.5915 33.482 8.58187 30.1319 7.67846 26.4199C6.77506 22.7079 7.02045 18.809 8.38215 15.2395C9.74386 11.67 12.1576 8.59833 15.3039 6.43117C18.4501 4.26402 22.1804 3.10361 26.0008 3.10361C29.8212 3.10361 33.5515 4.26402 36.6977 6.43117C39.8439 8.59833 42.2577 11.67 43.6194 15.2395C44.9811 18.809 45.2265 22.7079 44.3231 26.4199C43.4197 30.1319 41.4085 33.482 38.5589 36.0266Z" fill="white"/>
</g>
<defs>
<filter id="filter0_d_3_22" x="0" y="0" width="52" height="52" filterUnits="userSpaceOnUse" color-interpolation-filters="sRGB">
<feFlood flood-opacity="0" result="BackgroundImageFix"/>
<feColorMatrix in="SourceAlpha" type="matrix" values="0 0 0 0 0 0 0 0 0 0 0 0 0 0 0 0 0 0 127 0" result="hardAlpha"/>
<feOffset dy="4"/>
<feGaussianBlur stdDeviation="2"/>
<feColorMatrix type="matrix" values="0 0 0 0 0 0 0 0 0 0 0 0 0 0 0 0 0 0 0.25 0"/>
<feBlend mode="normal" in2="BackgroundImageFix" result="effect1_dropShadow_3_22"/>
<feBlend mode="normal" in="SourceGraphic" in2="effect1_dropShadow_3_22" result="shape"/>
</filter>
</defs>
</svg>
